<svg width="100" height="100" viewBox="0 0 100 100" fill="none" xmlns="http://www.w3.org/2000/svg">
<g clip-path="url(#clip0_221_27)">
<path d="M10.6115 84.3872C10.9447 84.7204 10.9447 85.2607 10.6115 85.5939L9.19616 87.0092C8.86294 87.3425 8.32268 87.3424 7.98946 87.0092V87.0092C7.65624 86.676 7.65624 86.1357 7.98946 85.8025L9.40482 84.3872C9.73804 84.054 10.2783 84.054 10.6115 84.3872V84.3872ZM12.199 85.9723C11.8657 85.639 11.3254 85.639 10.9922 85.9723L9.57685 87.3876C9.24364 87.7209 9.24365 88.2611 9.57687 88.5943V88.5943C9.9101 88.9276 10.4504 88.9276 10.7836 88.5943L12.1989 87.179C12.5322 86.8458 12.5322 86.3055 12.199 85.9723V85.9723ZM13.7877 87.5559C13.4545 87.2226 12.9142 87.2226 12.5809 87.5559L11.1655 88.9712C10.8323 89.3045 10.8323 89.8448 11.1655 90.1781V90.1781C11.4988 90.5114 12.0391 90.5114 12.3724 90.1781L13.7877 88.7627C14.121 88.4295 14.121 87.8892 13.7877 87.5559V87.5559ZM12.7548 90.5632C12.4215 90.8964 12.4214 91.4367 12.7547 91.77V91.77C13.0879 92.1033 13.6282 92.1034 13.9615 91.7702L15.3772 90.355C15.7105 90.0218 15.7106 89.4814 15.3774 89.1481V89.1481C15.0441 88.8148 14.5038 88.8147 14.1705 89.1479L12.7548 90.5632ZM100 5.62647C99.9966 7.37304 98.8706 8.8299 97.1979 9.25163L96.7224 9.37157C96.2913 9.48039 95.919 9.76487 95.7007 10.1518L90.1314 20.0245C89.682 20.7642 88.8917 21.2057 88.0165 21.2057C87.6348 21.2057 87.2647 21.1221 86.916 20.9574C86.4479 20.7361 85.9249 20.6193 85.4038 20.6193C84.4587 20.6193 83.5699 20.9873 82.9016 21.6556L81.5943 22.9629L39.3376 66.1247C39.0887 66.3789 38.8762 66.6721 38.7683 67.0111C38.4558 67.9929 38.6026 68.7962 39.2106 69.4041C40.2261 70.4199 41.9899 70.3345 44.6028 69.143C44.7059 69.0984 44.8476 69.0304 45.052 68.9281C45.8846 68.5208 46.7453 68.5379 47.4825 68.974C48.3587 69.4922 48.9384 70.5642 48.9956 71.7719C49.0644 73.2219 48.5181 74.4755 47.2771 75.7165C45.8266 77.1672 42.4881 78.8049 40.0698 79.767C37.6918 80.7141 35.9314 82.7579 35.361 85.2338C34.4992 88.9838 33.2547 91.95 31.6621 94.0502C31.14 94.9337 30.5046 95.7523 29.7726 96.4842C27.4502 98.8067 24.3627 100.086 21.0784 100.086H21.0765C17.7927 100.087 14.7059 98.8078 12.3842 96.4859L3.60196 87.7034C1.27909 85.3807 -0.000163383 82.2925 1.56513e-08 79.0079C0.000326813 75.7235 1.27941 72.6358 3.60196 70.3136C4.27612 69.6392 5.02358 69.0483 5.83396 68.5482C5.84409 68.5419 5.84552 68.5278 5.83684 68.5196V68.5196C5.82769 68.5111 5.82987 68.496 5.84108 68.4904L6.94379 67.9366C7.8152 67.519 8.7286 67.2047 9.66013 67.0016L14.9791 65.1755C18.5609 63.944 21.333 61.2101 22.5842 57.6758C24.2364 53.0041 26.3979 49.8065 29.1915 47.9008C29.2355 47.8709 29.3203 47.8054 29.4402 47.7139C34.6933 43.7142 38.3271 42.8186 40.2417 45.0518C40.5364 45.3961 40.6659 45.8286 40.6159 46.3031C40.444 47.9361 37.9946 50.0152 35.3735 52.0186C35.1467 52.1917 34.9513 52.3412 34.8624 52.4154C34.2078 52.9619 33.5163 54.1637 33.4606 55.4041C33.4235 56.2271 33.6649 56.9046 34.1775 57.4172C34.3576 57.5973 34.5645 57.743 34.7976 57.8539C35.5239 58.1997 36.3421 57.803 36.9188 57.2422L76.6464 18.6106C77.0206 18.2482 77.3002 17.7953 77.4557 17.2998L77.7118 16.4846C77.9878 15.606 78.5693 14.8596 79.3516 14.3763V14.3763C79.8148 14.0117 79.9079 13.3467 79.5628 12.8688L79.4807 12.7552C79.2047 12.3732 79.2905 11.8397 79.6727 11.5637C80.0546 11.2879 80.5884 11.3735 80.8641 11.7557V11.7557C81.2233 12.2531 81.9243 12.3513 82.4064 11.9719L83.1548 11.3829C83.6804 10.9691 83.7861 10.2144 83.3943 9.67222V9.67222C83.1183 9.2902 83.2043 8.7567 83.5865 8.48072C83.9683 8.2049 84.5021 8.29052 84.7778 8.67271V8.67271C85.1377 9.17096 85.84 9.26937 86.323 8.88923L87.0071 8.35083C87.5631 7.91326 87.6749 7.11503 87.2606 6.5415V6.5415C86.9847 6.15948 87.0706 5.62598 87.4525 5.35C87.835 5.07418 88.368 5.1598 88.644 5.54199V5.54199C89.0259 6.07073 89.7712 6.17516 90.2837 5.77176L90.9021 5.28508C91.4679 4.83978 91.5817 4.02746 91.1602 3.44379V3.44379C90.8842 3.06176 90.9701 2.52827 91.3521 2.25229C91.7338 1.97647 92.2678 2.06209 92.5435 2.44428L92.7817 2.77395C93.0408 3.13265 93.5464 3.20346 93.8941 2.92974V2.92974C94.625 2.32565 95.4907 2 96.3825 2C96.6932 2 97.0052 2.03971 97.3103 2.11781C98.9476 2.53676 100.003 3.91389 100 5.62647ZM38.0039 70.611C37.8322 70.4393 37.6806 70.2582 37.5492 70.0686C37.1651 69.5149 36.2773 69.2507 35.806 69.7322V69.7322C35.4873 70.0578 34.9642 70.0605 34.642 69.7384L31.3516 66.4478C30.2944 65.3905 30.3064 63.6727 31.3784 62.6303L33.2043 60.8549C33.8053 60.2704 33.5642 59.2169 32.9712 58.6242V58.6242C32.1177 57.7704 31.6976 56.6307 31.7561 55.3275C31.827 53.748 32.636 52.0511 33.769 51.1052C33.8861 51.0075 34.0753 50.8627 34.3374 50.6624C36.5802 48.9482 37.7343 47.849 38.3231 47.1552C38.8216 46.5678 38.6326 45.7146 37.8697 45.6073C36.3258 45.39 33.7383 46.587 30.4748 49.0719C30.3198 49.1899 30.2098 49.2727 30.1536 49.3109C27.7051 50.9812 25.6997 53.9873 24.1936 58.2451C22.7677 62.2734 19.6114 65.3879 15.534 66.79L10.068 68.66C9.30082 68.8239 8.54657 69.0755 7.82386 69.409L7.66879 69.4848C6.60311 70.0034 5.64085 70.6882 4.80899 71.5203C2.80882 73.5204 1.70719 76.1797 1.70703 79.008C1.70703 81.8366 2.8085 84.4961 4.80882 86.4961L13.5909 95.2786C15.5904 97.2778 18.2489 98.3791 21.0768 98.3791H21.0781C23.9067 98.3786 26.5655 97.2771 28.5659 95.277C29.2082 94.6345 29.7642 93.9152 30.2181 93.1386L30.2632 93.0617C30.2748 93.0418 30.2893 93.0237 30.3061 93.0079V93.0079C30.3161 92.9985 30.3252 92.9883 30.3334 92.9774C32.1146 90.6056 33.1452 87.2551 33.6979 84.851C34.3938 81.8289 36.54 79.3356 39.4386 78.1811C42.3329 77.0297 45.0601 75.5203 46.0704 74.5095C46.9714 73.6085 47.3364 72.8141 47.291 71.8525C47.261 71.2221 46.9953 70.6688 46.6137 70.443C46.3779 70.3034 46.1147 70.3082 45.8092 70.458C45.576 70.5745 45.4157 70.6511 45.2956 70.7029C44.0843 71.2554 40.3507 72.9578 38.0039 70.611ZM98.2933 5.62304C98.2946 4.90212 97.9258 4.03693 96.8874 3.77124C96.2266 3.6018 95.5585 3.76895 94.9657 4.25833L80.3237 15.7825L80.2763 15.8106C79.8289 16.0778 79.4964 16.4982 79.3404 16.9953L79.0842 17.8105C78.8435 18.576 78.4116 19.2757 77.8353 19.8343L33.5631 62.886C32.6263 63.797 32.6158 65.2983 33.5398 66.2223V66.2223C34.4616 67.1441 35.9585 67.1362 36.8705 66.2046L80.3807 21.7621L81.6945 20.4482C82.6853 19.4577 84.0025 18.9121 85.4033 18.9121C86.1749 18.9121 86.9502 19.0856 87.6448 19.4139C88.0155 19.5892 88.4632 19.4716 88.6665 19.1474L94.2137 9.31275C94.6606 8.52026 95.4231 7.9384 96.3052 7.71601L96.7809 7.59608C97.8949 7.31569 98.2917 6.35784 98.2933 5.62304ZM26.3151 81.6778C25.417 82.576 23.9608 82.576 23.0627 81.6779L20.6505 79.2657C19.7524 78.3676 19.7524 76.9115 20.6505 76.0134V76.0134C21.5486 75.1153 23.0047 75.1153 23.9028 76.0134L26.315 78.4255C27.2131 79.3236 27.2131 80.7797 26.3151 81.6778V81.6778ZM24.2695 80.4709C24.501 80.7025 24.8764 80.7025 25.108 80.4709V80.4709C25.3395 80.2393 25.3395 79.864 25.1079 79.6324L22.6958 77.2201C22.4642 76.9886 22.0888 76.9886 21.8572 77.2202V77.2202C21.6257 77.4517 21.6257 77.8271 21.8573 78.0586L24.2695 80.4709ZM27.4163 75.437C26.5182 76.3351 25.0622 76.3351 24.1641 75.437L21.7518 73.0247C20.8537 72.1266 20.8537 70.6705 21.7518 69.7724V69.7724C22.6499 68.8743 24.106 68.8743 25.0041 69.7724L27.4164 72.1848C28.3145 73.0829 28.3144 74.539 27.4163 75.437V75.437ZM25.3708 74.2301C25.6024 74.4617 25.9777 74.4617 26.2093 74.2301V74.2301C26.4408 73.9986 26.4408 73.6233 26.2093 73.3917L23.7971 70.9793C23.5655 70.7477 23.1901 70.7477 22.9585 70.9793V70.9793C22.727 71.2109 22.727 71.5862 22.9586 71.8177L25.3708 74.2301ZM30.1361 90.1082C30.2855 91.4296 29.3319 92.6265 28.0103 92.7763C27.9196 92.7866 27.8279 92.7917 27.7373 92.7917C26.51 92.7915 25.4801 91.8708 25.3422 90.6503C25.2699 90.0103 25.451 89.3801 25.8526 88.8761C26.2541 88.3722 26.8278 88.0549 27.4681 87.9825C27.5585 87.9722 27.6503 87.967 27.741 87.967C28.9681 87.967 29.9977 88.8876 30.1361 90.1082ZM28.4402 90.3C28.3998 89.943 28.0993 89.6739 27.741 89.6739C27.7141 89.6739 27.6873 89.6752 27.6598 89.6783C27.4726 89.6993 27.3047 89.7922 27.1874 89.9397C27.0699 90.0869 27.017 90.2714 27.0382 90.4585C27.0786 90.8157 27.3789 91.085 27.7371 91.085C27.7637 91.085 27.791 91.0837 27.8181 91.0806C28.2049 91.0368 28.484 90.6864 28.4402 90.3ZM26.1507 94.4085C26.3 95.7302 25.3464 96.9271 24.0247 97.0766C23.9342 97.0869 23.8425 97.092 23.7518 97.092C22.5245 97.092 21.4946 96.1714 21.3569 94.9508C21.2846 94.3108 21.4657 93.6806 21.8672 93.1766C22.2688 92.6727 22.8425 92.3552 23.4827 92.2828C23.5732 92.2726 23.6649 92.2675 23.7556 92.2675C24.9825 92.2675 26.0121 93.1879 26.1507 94.4085ZM24.4544 94.6002C24.4141 94.2431 24.1136 93.974 23.7554 93.974C23.7284 93.974 23.7016 93.9753 23.674 93.9784C23.4869 93.9995 23.319 94.0923 23.2016 94.2399C23.0842 94.3873 23.0312 94.5716 23.0525 94.7587C23.0928 95.116 23.3931 95.3851 23.7513 95.3851C23.7783 95.3851 23.8054 95.3838 23.8327 95.3807C24.2194 95.3369 24.4982 94.9871 24.4544 94.6002Z" fill="#ffffff"/>
</g>
<defs>
<clipPath id="clip0_221_27">
<rect width="100" height="100" fill="white"/>
</clipPath>
</defs>
</svg>
