<svg width="120" height="120" viewBox="0 0 120 120" fill="none" xmlns="http://www.w3.org/2000/svg">
<path d="M30.6476 0.372513C30.6139 0.677296 30.4622 0.778895 30.0576 0.812759L29.5013 0.863556V1.86256V2.84465L28.3718 3.09863C27.7312 3.25102 26.0454 3.40342 24.6125 3.47115C21.0555 3.6066 15.7284 4.02991 14.11 4.31776C12.694 4.57175 12.2725 4.77494 12.5928 5.09666C12.9806 5.4861 15.0878 5.60463 22.893 5.70622L31.0185 5.79089V6.87457C31.0185 7.90744 31.0016 7.95824 30.5971 7.95824C30.0745 7.95824 29.7879 8.48314 29.771 9.51601L29.7542 10.3288L25.3542 13.529L20.9543 16.7292L19.0663 16.543C16.959 16.3398 16.7567 16.3906 16.3521 17.2372C16.2173 17.525 16.015 17.779 15.9138 17.779C15.4924 17.779 15.3238 19.5231 15.7284 19.7601C15.8464 19.8279 16.0318 20.1665 16.1161 20.4882C16.3016 21.1486 16.8242 21.5042 17.6671 21.5042H18.2065V26.2114V30.9355L14.4641 31.0371C12.3905 31.1048 10.5193 31.1895 10.2833 31.2234C10.0473 31.2742 9.25498 31.3927 8.49637 31.4943C6.72629 31.7313 4.18075 32.4086 3.08499 32.9505C2.02295 33.4584 1.34863 34.2204 1.34863 34.8977C1.34863 35.2194 1.26434 35.3887 1.09576 35.3887C0.893468 35.3887 0.842894 35.6427 0.842894 36.6587C0.842894 37.3868 0.775462 37.9286 0.674315 37.9286C0.590026 37.9286 0.505736 38.335 0.505736 38.843C0.505736 39.588 0.573168 39.7912 0.893468 39.9944C1.23063 40.2314 1.26434 40.4007 1.31491 42.1278C1.36549 43.8549 1.34863 44.0243 1.02833 44.3121C0.758605 44.5322 0.674315 44.8032 0.674315 45.4635C0.674315 45.9376 0.758605 46.4117 0.87661 46.5303C0.977757 46.6319 1.04519 47.1568 1.02833 47.7494C1.01147 48.6638 1.04519 48.7992 1.33177 48.8839C1.53407 48.9347 1.68579 49.1717 1.75322 49.5273C1.88808 50.2215 2.96699 51.2375 4.21447 51.8301L5.05736 52.2365V53.5064V54.7764L6.10255 55.0642L7.14774 55.3351L9.18754 54.5393C11.0082 53.8281 11.2948 53.7604 12.0534 53.8789C12.5254 53.9467 13.7055 54.0483 14.7169 54.116L16.5207 54.2176V59.0941C16.5207 63.0394 16.4701 63.9876 16.2847 64.0553C16.0993 64.123 16.0824 65.2067 16.1498 70.2187C16.2173 75.6879 16.2004 76.3144 15.9476 76.5176C15.7958 76.6361 15.6778 76.9917 15.6778 77.2965C15.6778 77.8383 15.4081 78.0753 9.42355 82.7487C5.96769 85.424 2.91641 87.7607 2.62983 87.9131C2.34325 88.0824 1.77008 88.2179 1.31491 88.2179H0.505736V89.3862C0.505736 90.0296 0.387731 90.8085 0.252868 91.1472C0.118005 91.4858 0 92.0277 0 92.3663C0 92.9251 0.0337158 92.9589 0.573168 92.9589C0.87661 92.9589 1.6015 92.9081 2.17467 92.8404L3.23671 92.7388L3.15242 92.0446C3.11871 91.6551 3.01756 91.198 2.95013 90.9948C2.84898 90.69 3.65816 89.9958 8.96839 85.6949L15.0878 80.7507L15.1384 81.3772C15.1721 81.7158 15.0709 82.2915 14.9361 82.6471C14.7506 83.1043 14.7001 83.5445 14.7675 84.0186L14.8855 84.7129L15.9476 84.6113L17.0265 84.5266V87.3712C17.0265 89.691 16.9759 90.2498 16.7736 90.4191C16.5882 90.5715 16.5207 91.0117 16.5207 92.197V93.7717L10.199 97.3614L3.86045 100.934L2.93327 100.748C2.0398 100.562 1.97237 100.579 1.58464 100.934C1.21377 101.29 1.16319 101.459 1.19691 102.526C1.21377 103.406 1.12948 103.931 0.859752 104.541C0.657457 104.998 0.539452 105.404 0.573168 105.438C0.606884 105.489 1.2812 105.658 2.05666 105.845L3.45587 106.149L4.13018 105.489L4.78764 104.812L4.43362 104.1L4.07961 103.372L10.199 99.7658C13.5537 97.8016 16.3353 96.1761 16.3859 96.1761C16.6219 96.1761 16.0318 97.9032 13.2503 105.455C11.1599 111.127 10.1484 113.65 9.77757 114.124C9.32241 114.7 9.27183 114.886 9.27183 115.936C9.27183 116.783 9.15383 117.409 8.85039 118.188C8.61438 118.781 8.46266 119.289 8.51323 119.34C8.54695 119.374 9.15383 119.543 9.86186 119.712L11.1262 120L11.9522 118.984L12.7783 117.951L12.34 117.071L11.9185 116.207L14.9361 107.385C16.8579 101.747 17.9874 98.6652 18.0716 98.8514C18.1391 99.0038 18.2234 99.3425 18.2739 99.5795C18.3751 100.02 18.3751 100.02 19.5889 99.9351C20.2632 99.9012 20.8532 99.8335 20.8869 99.7996C20.9543 99.7488 20.8026 98.9699 20.4655 97.5307C20.3812 97.2259 21.0723 97.8185 22.8087 99.5456C24.1911 100.934 25.2194 102.086 25.1688 102.204C25.034 102.577 25.4048 103.017 25.86 103.034C26.1803 103.034 27.1412 103.88 29.9902 106.742C32.0468 108.791 33.6989 110.467 33.6652 110.484C33.6483 110.501 32.9234 111.077 32.0468 111.754C30.9005 112.651 30.2936 113.007 29.8216 113.058C29.181 113.142 29.1641 113.176 29.1641 113.82C29.1641 114.175 29.063 114.683 28.945 114.937C28.8101 115.191 28.7595 115.581 28.827 115.818C28.9281 116.207 28.9787 116.241 29.8384 116.173C30.9848 116.106 31.0354 116.072 30.8499 115.547C30.5802 114.836 30.6308 114.717 31.9625 113.667L33.2437 112.651L34.6261 112.956C35.3678 113.125 36.0421 113.278 36.0927 113.278C36.1602 113.278 36.413 112.973 36.6659 112.584C37.1379 111.856 37.1379 111.754 36.6827 110.704L36.413 110.078L37.4582 109.231C38.0314 108.757 38.554 108.435 38.6214 108.503C38.672 108.571 38.8574 108.994 39.026 109.468C39.1946 109.925 39.4137 110.399 39.5149 110.518C39.6497 110.653 40.3578 110.636 42.3976 110.399L45.0948 110.095L45.9377 110.992C47.3538 112.499 49.2756 113.972 51.72 115.428C52.2257 115.733 52.7146 115.987 52.8157 115.987C52.9169 115.987 53.7261 116.292 54.6195 116.647C57.5865 117.883 61.329 118.442 65.4929 118.307C70.5334 118.137 73.8544 117.308 79.8895 114.683C80.2098 114.548 80.8672 114.192 81.3224 113.887C81.7944 113.583 82.8228 112.956 83.5982 112.499C84.3737 112.042 85.166 111.517 85.3683 111.331C85.5537 111.127 86.1438 110.636 86.6495 110.23C87.897 109.231 89.7851 107.436 90.9314 106.2L91.8586 105.167L93.3084 106.268C94.7076 107.335 94.7581 107.385 94.5221 107.758C94.1513 108.317 94.657 108.875 95.5336 108.875C96.4439 108.875 96.6462 108.706 96.4271 108.113C96.3259 107.859 96.2922 107.385 96.3596 107.081C96.4945 106.336 96.2248 105.997 95.483 105.997C95.0616 105.997 94.6064 105.76 93.7298 105.133L92.5498 104.27L93.2915 103.305C94.1007 102.255 95.5167 100.02 96.0562 98.953C96.2922 98.4789 97.624 97.1412 100.001 94.957C105.193 90.199 104.772 90.5376 105.21 90.7577C105.412 90.8763 105.918 91.0117 106.323 91.0794L107.081 91.181L110.183 99.2239C111.886 103.643 113.285 107.351 113.285 107.453C113.285 107.538 113.049 107.944 112.762 108.334L112.24 109.045L113.15 109.891C113.723 110.416 114.195 110.721 114.465 110.721C114.937 110.738 116.134 110.484 116.252 110.349C116.303 110.298 116.252 109.807 116.134 109.248C115.982 108.503 115.965 107.978 116.1 107.267L116.269 106.319L115.611 105.692C115.038 105.133 114.617 104.219 112.021 97.8863C110.385 93.941 109.087 90.69 109.121 90.6561C109.155 90.6223 110.857 92.0107 112.914 93.7378L116.657 96.8873L116.117 97.6492C115.78 98.1064 115.645 98.445 115.746 98.5128C115.847 98.5805 116.185 98.8514 116.522 99.1054C117.112 99.5626 117.129 99.5626 118.325 99.3763C118.983 99.2578 119.522 99.1223 119.522 99.0546C119.522 98.9869 119.421 98.5974 119.286 98.1741C119.118 97.5815 119.101 97.1582 119.219 96.4301C119.388 95.5496 119.371 95.4311 119.033 95.0924C118.747 94.8215 118.46 94.7368 117.752 94.7368H116.842L112.729 91.3842L108.615 88.0485L108.851 86.5754C109.054 85.3055 109.054 85.0854 108.834 84.8483C108.598 84.5943 108.75 83.426 110.183 74.164C111.144 67.7974 111.886 63.5473 112.037 63.2426C112.189 62.9547 112.476 61.6848 112.695 60.3979C113.015 58.3152 113.032 58.0274 112.813 57.8073C112.594 57.5702 112.678 56.7574 113.622 50.6618C114.414 45.4127 114.752 43.6687 114.988 43.3131C115.156 43.0591 115.308 42.6358 115.325 42.3818C115.358 41.4675 115.527 41.1796 115.932 41.332L116.303 41.4675L115.982 42.1956C115.628 43.0083 115.679 43.1269 116.437 43.2792C116.926 43.3808 116.994 43.3131 117.668 42.331C118.41 41.2304 119.269 39.4864 119.135 39.3509C119.101 39.3001 118.797 39.2324 118.477 39.1647C117.938 39.08 117.837 39.1308 117.398 39.7742C116.977 40.3669 116.825 40.4685 116.252 40.4685H115.594L115.712 39.7404C115.78 39.3509 115.864 38.7752 115.915 38.4874C115.999 38.0133 115.965 37.9117 115.578 37.7423C115.173 37.5561 115.139 37.4714 115.24 36.8449C115.291 36.4555 115.814 33.1367 116.37 29.4624L117.415 22.7741L118.174 22.7233C119.067 22.6556 119.59 22.2323 119.876 21.3687C120.129 20.6067 119.978 19.3707 119.573 18.8119C119.236 18.3717 119.185 18.3717 116.808 18.287L114.381 18.2023L108.447 14.8328L102.53 11.4632L102.614 10.9045C102.715 10.261 102.31 9.48215 101.889 9.48215C101.67 9.48215 101.653 9.32976 101.737 8.50008C101.906 7.06082 101.956 6.92536 102.378 7.02695C102.9 7.14548 108.598 7.8905 112.105 8.29688C115.948 8.75406 119.017 8.92338 119.017 8.6694C119.017 8.41541 117.348 8.05983 112.021 7.19627C107.115 6.40045 106.458 6.24806 104.772 5.51997L103.76 5.09666L103.794 4.1823C103.845 3.28489 103.828 3.25103 103.356 3.16637C102.968 3.0817 102.884 2.99704 102.951 2.74305C103.035 2.38747 102.631 2.20122 101.771 2.20122C101.417 2.20122 101.265 2.30281 101.198 2.53986C101.13 2.75998 100.962 2.87851 100.709 2.87851C100.271 2.87851 99.9672 3.40342 99.9672 4.14845C99.9672 4.50403 99.8661 4.55482 98.5006 4.74108C97.1688 4.92734 96.6799 4.9104 93.3252 4.50402C86.7001 3.72513 84.7951 3.57274 84.7951 3.87753C84.7951 4.11458 85.638 4.35163 88.5882 4.89347C90.9314 5.31678 93.0555 5.65543 99.7144 6.67137C100.456 6.77297 101.046 6.92536 101.046 6.99309C101.029 7.06082 100.962 7.65345 100.894 8.29688C100.776 9.46522 100.76 9.48215 100.304 9.48215C99.6806 9.48215 99.2929 10.024 99.2929 10.8706C99.2929 11.7003 99.6469 12.022 100.574 12.022C101.248 12.022 101.973 12.3945 107.267 15.4254C110.537 17.3049 113.369 18.9304 113.572 19.0659C113.892 19.2691 113.926 19.3707 113.757 19.8109C113.319 21.0809 114.178 22.8588 115.207 22.8588C115.51 22.8588 115.645 22.9434 115.645 23.1466C115.645 23.3159 115.156 26.567 114.583 30.3937L113.521 37.336L113.066 37.3868C112.543 37.4545 112.56 37.3529 112.105 40.4515C111.869 42.0601 111.818 42.7713 111.953 42.839C112.071 42.9237 111.818 45.1079 111.077 49.9675C110.183 55.9955 109.981 57.0114 109.694 57.2485C109.458 57.4347 109.306 57.8919 109.172 58.7555L108.986 59.9915L108.076 60.4656C107.081 60.9905 106.205 61.7356 106.205 62.0912C106.205 62.3959 106.997 62.379 107.89 62.0573C108.75 61.7525 108.75 61.7525 108.7 62.0065C108.683 62.125 108.716 62.379 108.784 62.5653C108.851 62.7515 108.177 67.6619 107.3 73.4697C105.935 82.5455 105.665 84.0694 105.379 84.2557C105.159 84.425 105.008 84.8652 104.856 85.8473C104.704 86.7955 104.553 87.2527 104.367 87.3712C104.03 87.5406 99.5626 89.2338 99.4278 89.2338C99.3941 89.2338 99.4446 88.5734 99.5626 87.7607C99.8661 85.7288 99.6132 81.6481 99.0569 79.3114C98.0791 75.3154 96.3091 71.9289 93.713 69.135C93.1735 68.5593 91.69 67.1201 90.3919 65.9517C88.5207 64.2585 88.0487 63.7336 88.133 63.4627C88.1836 63.2087 87.9138 62.8192 86.9867 61.888C85.874 60.7704 85.7897 60.635 85.9752 60.2794C86.1269 59.9746 86.1269 59.873 85.8909 59.7037C85.638 59.5174 85.638 59.2465 85.9752 56.1309C86.1775 54.2684 86.3798 52.6429 86.4135 52.5074C86.4641 52.3381 86.8518 52.609 87.6273 53.3879C88.251 53.9975 89.0433 54.624 89.3805 54.7764C92.3643 56.0124 98.2309 53.0323 103.811 47.4277C105.8 45.4297 106.542 44.4984 108.177 42.0601C109.391 40.2314 109.846 39.3848 110.621 37.4714C111.093 36.3031 111.161 35.9644 111.161 34.4236C111.178 32.324 111.211 32.3917 108.565 30.0889C107.284 28.9883 106.424 28.3787 105.969 28.2433C105.227 28.0231 103.17 26.3638 103.17 25.9743C103.17 25.8558 102.58 25.3478 101.872 24.8568C99.7818 23.4514 94.8593 19.1167 94.3367 18.2193C93.8478 17.3727 90.7291 14.6127 89.7176 14.1216C89.3636 13.9523 88.5376 13.7999 87.7958 13.7491C86.7169 13.6814 86.2786 13.7491 85.1323 14.1216C82.5362 14.9683 80.2772 16.289 77.698 18.4902C76.3493 19.6247 74.3264 21.7074 73.9218 22.3847C73.8375 22.5201 73.2475 23.4006 72.6237 24.3319C70.6514 27.2612 69.6568 29.8857 69.5219 32.5102C69.4376 34.068 69.4545 34.1527 69.9939 35.2194C70.4996 36.2184 70.5334 36.3878 70.3985 37.0989C70.1288 38.5212 70.5671 39.571 71.7134 40.2145C72.0337 40.4007 72.0337 40.5023 71.6966 44.2105C71.2583 49.1548 71.3594 49.0193 69.151 47.8679C68.2407 47.4108 67.4821 47.0044 67.4484 46.9705C67.4147 46.9536 67.4989 45.599 67.617 44.0073C67.853 40.8918 67.8192 40.9595 68.8644 40.2314C69.9771 39.4695 70.4154 36.9127 69.6568 35.6766C68.443 33.7463 65.3411 33.7124 64.3128 35.6427C63.9925 36.2354 63.9588 36.2354 63.217 36.1338C62.7956 36.066 62.4079 35.9475 62.3573 35.8628C62.3067 35.7782 61.9696 35.6766 61.5987 35.6258C60.3512 35.4565 60.2163 35.3887 59.8286 34.7792L59.4577 34.1696L59.9803 32.4594C61.1267 28.7174 61.2784 27.1088 60.7052 24.8568C60.0309 22.1984 58.8003 20.1157 56.7773 18.1854C51.4502 13.1057 43.6956 11.4971 37.6605 14.2232C37.0873 14.4772 36.3287 14.8836 35.9747 15.1376C34.9801 15.8149 33.564 17.2541 33.0077 18.1685C32.738 18.6087 32.4346 18.9135 32.3503 18.8627C32.0637 18.6934 31.7097 19.1336 31.3557 20.1157C31.1534 20.6406 30.8668 21.1486 30.7151 21.2671C30.5465 21.3856 30.1419 22.046 29.7879 22.7402C29.2484 23.807 29.181 24.0779 29.3496 24.3488C29.6024 24.7552 29.299 25.7203 28.2707 27.7692C27.7649 28.7851 27.4278 29.2761 27.0906 29.4285C26.804 29.564 26.45 30.0042 26.1466 30.6307L25.6408 31.6128L24.4945 31.4604C23.8708 31.3758 22.5896 31.2572 21.6624 31.1895L19.9766 31.071V29.9196C19.9766 29.2931 20.0103 27.2273 20.0272 25.3309L20.0609 21.8597L20.8701 21.8089C21.5949 21.7581 21.6961 21.7074 21.9995 21.1317C22.185 20.7761 22.421 20.4882 22.5221 20.4882C22.9604 20.4882 23.1122 18.7442 22.6907 18.5071C22.5727 18.4394 22.421 18.1346 22.3704 17.8637C22.2693 17.3727 22.3535 17.288 26.6186 14.1386C30.9342 10.9553 30.9848 10.9214 31.9288 10.8706C32.7886 10.8198 32.8729 10.786 32.9909 10.3626C33.1426 9.77001 33.1426 8.80486 32.9909 8.41541C32.9234 8.22916 32.7043 8.12756 32.3671 8.12756H31.8614V6.94229C31.8614 5.92635 31.912 5.75702 32.1648 5.75702C32.3166 5.75702 34.1541 5.67236 36.2444 5.5877C45.078 5.19825 50.2365 4.62255 50.2365 4.04685C50.2365 3.50501 46.8986 3.21716 40.4758 3.21716C37.2728 3.21716 35.1655 3.14943 34.5249 3.01397L33.5472 2.81078V1.9303C33.5472 1.08368 33.5303 1.03288 33.0414 0.931282C32.6537 0.84662 32.5357 0.728096 32.5357 0.40638C32.5357 0.0338666 32.4683 0 31.6254 0C30.7993 0 30.6982 0.0338646 30.6476 0.372513ZM1.75322 37.6746C1.80379 37.8101 1.77008 37.9286 1.68579 37.9286C1.58464 37.9286 1.51721 37.8101 1.51721 37.6746C1.51721 37.5392 1.55092 37.4206 1.58464 37.4206C1.61836 37.4206 1.68579 37.5392 1.75322 37.6746ZM63.8239 38.9784C63.9757 39.2832 64.3465 39.8081 64.65 40.1298L65.2063 40.7225L64.9871 43.3978C64.8691 44.8709 64.7511 46.107 64.7174 46.1239C64.6837 46.1578 64.1611 46.09 63.5542 45.9546C62.4922 45.7344 60.1826 45.5482 57.7382 45.4974L56.5582 45.4635L56.6088 44.2783C56.6425 43.6179 56.8279 42.5004 57.0133 41.7723C57.3505 40.5701 57.4011 40.4685 57.8057 40.4685C58.126 40.4685 58.5137 40.1975 59.1712 39.5202L60.0983 38.572L61.1604 38.6736C61.8347 38.7414 62.2056 38.7244 62.2056 38.6059C62.2056 38.5212 62.509 38.4366 62.8799 38.4366C63.4699 38.4366 63.5879 38.5043 63.8239 38.9784ZM80.7492 45.7852C80.7492 46.0731 82.4856 47.9357 82.6879 47.851C83.0082 47.7325 84.7783 49.6289 84.8963 50.2385C84.9806 50.6956 84.4243 56.7913 84.2051 57.8581C84.1208 58.2136 84.0702 58.1967 82.8565 57.4517C81.6427 56.7066 81.5921 56.6897 81.1875 56.9606C80.7661 57.2146 80.7492 57.2146 79.7883 56.4188C79.2489 55.9616 78.406 55.1489 77.9171 54.607C77.0574 53.6757 77.0237 53.5741 77.1079 52.9307C77.2259 52.0333 76.9731 51.7285 75.2536 50.6956C74.5287 50.2554 73.9049 49.8829 73.8881 49.866C73.8544 49.849 74.0229 47.8341 74.259 45.3619C74.8321 39.2663 74.5793 39.4356 78.0857 42.9575C79.5523 44.4306 80.7492 45.7006 80.7492 45.7852ZM29.0967 53.9128C30.9342 54.37 31.3894 54.4377 31.7771 54.2853C32.1648 54.116 32.384 54.1668 33.1932 54.5562C33.7158 54.8102 34.7104 55.2335 35.4015 55.4706C36.0927 55.7246 36.6996 55.9616 36.7333 55.9955C36.7839 56.0293 36.649 56.2156 36.4636 56.4357C36.2782 56.6389 35.7724 57.2993 35.351 57.9088C32.7211 61.6848 31.0354 66.2057 30.6813 70.4388C30.6139 71.3193 30.5465 72.0982 30.5296 72.1659C30.5128 72.2506 30.4116 72.3014 30.2768 72.3014C29.8047 72.3014 29.8216 72.9448 30.361 74.2656C30.8499 75.5186 30.8836 75.7048 30.7825 76.9917C30.6645 78.3632 30.6645 78.3801 31.1871 78.9728C31.5242 79.3453 32.1311 80.5983 32.7886 82.2577C33.3786 83.7308 34.0361 85.2208 34.2215 85.5595C34.4238 85.9151 34.5587 86.3045 34.5081 86.44C34.4238 86.6262 34.6935 87.8623 35.1655 89.437C35.233 89.6741 35.1655 89.7418 34.8452 89.7418C34.3395 89.7418 34.0529 88.8952 34.0529 87.3543C34.0529 86.7617 33.9855 86.169 33.9012 86.0505C33.8169 85.8981 33.4629 85.8473 32.856 85.8643L31.9457 85.8981L26.1803 82.0714L20.398 78.2447V72.5215C20.4149 67.7635 20.4486 66.7476 20.6509 66.4767C20.7858 66.2904 20.9038 65.8501 20.9038 65.4946V64.8511L21.5949 65.3422C22.3535 65.9009 23.837 66.4597 24.1068 66.2904C24.7642 65.884 23.5167 64.377 21.9995 63.7505L20.9881 63.3442L20.9375 62.1081C20.9038 61.1599 20.8026 60.7874 20.5498 60.5164C20.2463 60.1947 20.2295 60.0085 20.3306 57.1808C20.398 55.5383 20.4823 54.1837 20.516 54.1837C20.8869 54.1837 25.5397 53.6249 26.0454 53.5234C26.4163 53.4387 26.7535 53.371 26.804 53.354C26.8546 53.354 27.8829 53.5911 29.0967 53.9128ZM31.5074 88.1332C31.676 88.3025 31.6928 88.4549 31.5242 88.9121C31.3725 89.3354 31.3725 89.6063 31.5074 89.945C31.676 90.3852 31.7602 90.4191 32.6537 90.4191H33.6315L33.5978 92.5695L33.5809 94.7368L30.2768 97.3106C27.1918 99.7319 26.4837 100.223 26.9557 99.6642C27.0906 99.4949 27.0738 99.2747 26.8546 98.7837C26.7029 98.4281 26.5174 97.5984 26.4669 96.9381L26.3826 95.7697L25.7083 95.6343C25.1688 95.5157 25.0002 95.5496 24.8317 95.7697C24.6462 96.0068 24.4439 95.9221 22.775 94.9739L20.9038 93.8902V92.3155C20.9038 90.9778 20.8532 90.7069 20.5666 90.4191C20.2632 90.1143 20.2295 89.8603 20.2295 88.0824C20.2295 86.9649 20.28 84.8145 20.3475 83.2736L20.4486 80.4798L25.86 84.2049C28.8438 86.2368 31.3725 88.0147 31.5074 88.1332ZM17.1445 82.7148C17.1445 83.1212 17.077 83.426 16.9927 83.3752C16.7567 83.2228 16.841 81.9529 17.1107 81.9529C17.1276 81.9529 17.1445 82.2915 17.1445 82.7148ZM101.13 90.9778C98.4163 93.3992 98.0791 93.6024 98.7029 92.3832C98.8377 92.1293 98.9557 91.8075 98.9557 91.689C98.9557 91.5366 101.282 90.4529 101.653 90.436C101.704 90.436 101.468 90.6731 101.13 90.9778ZM34.4912 96.8873L34.8115 97.7847H36.1602H37.4919L38.2 99.5964C38.8743 101.357 38.8911 101.408 38.5371 101.459C38.0651 101.527 37.9302 102.373 37.9639 105.049L37.9808 107.081L37.2728 107.673C36.649 108.181 36.531 108.232 36.3962 107.995C36.3119 107.826 35.9073 107.673 35.3847 107.605C34.5249 107.487 34.4406 107.419 31.1702 104.253C28.4392 101.611 27.8661 100.968 28.0347 100.799C28.6415 100.189 33.8338 96.0237 33.9855 96.0237C34.0866 96.0068 34.3226 96.4132 34.4912 96.8873Z" fill="#fff"/>
</svg>
