<svg width="100" height="100" viewBox="0 0 100 100" fill="none" xmlns="http://www.w3.org/2000/svg">
<g clip-path="url(#clip0_217_64)">
<path d="M26.6671 91.2359C28.2584 91.2359 29.5484 89.946 29.5484 88.3547C29.5484 86.7634 28.2584 85.4734 26.6671 85.4734C25.0759 85.4734 23.7859 86.7634 23.7859 88.3547C23.7859 89.946 25.0759 91.2359 26.6671 91.2359Z" fill="#ffffff"/>
<path d="M38.5607 68.9773L30.7686 61.1929L34.5857 57.3726L42.3748 65.157L38.5607 68.9773Z" fill="#ffffff"/>
<path d="M23.2935 68.6664L27.1122 64.8492L34.8981 72.6367L31.0794 76.4554L23.2935 68.6664Z" fill="#ffffff"/>
<path d="M20.8482 73.0211L26.8794 79.0523L24.7029 81.2289L18.6716 75.1976L20.8482 73.0211Z" fill="#ffffff"/>
<path d="M32.7109 81.2906C32.2072 81.7946 31.8642 82.4366 31.7254 83.1355C31.5865 83.8344 31.6579 84.5588 31.9307 85.217C32.2035 85.8753 32.6653 86.4379 33.2578 86.8338C33.8503 87.2296 34.5468 87.4409 35.2594 87.4409C35.9719 87.4409 36.6685 87.2296 37.261 86.8338C37.8535 86.4379 38.3153 85.8753 38.5881 85.217C38.8608 84.5588 38.9323 83.8344 38.7934 83.1355C38.6545 82.4366 38.3115 81.7946 37.8078 81.2906C36.4 79.8844 34.1188 79.8844 32.7109 81.2906Z" fill="#ffffff"/>
<path d="M93.4639 18.6726L92.6889 17.8992C97.7936 13.0492 98.2483 11.7413 93.128 6.62416C88.0077 1.49916 86.6983 1.95854 81.8498 7.06166L81.078 6.28822C81.7545 5.4601 82.0373 4.6351 81.2889 3.88666C80.367 2.96635 79.3358 3.58979 78.3155 4.6101C77.2967 5.62885 76.6764 6.65854 77.5952 7.57572C78.3452 8.32416 79.167 8.04604 79.9967 7.36947L80.803 8.17572C79.6264 9.43041 78.2592 10.8976 76.6186 12.5835L75.6998 11.6648C76.378 10.8351 76.6545 10.0132 75.9092 9.26322C74.9889 8.3476 73.9577 8.96479 72.942 9.98041C71.9202 11.0023 71.2998 12.032 72.2217 12.9523C72.9702 13.7007 73.7936 13.4179 74.6233 12.7398L75.553 13.6695C75.3733 13.8507 75.2123 14.0179 75.0264 14.2038C73.5952 15.6351 72.3577 16.8804 71.2905 18.0054L70.3264 17.0398C71.0014 16.2101 71.2811 15.3882 70.5311 14.6413C69.6124 13.7226 68.5811 14.3398 67.5655 15.3585C66.5467 16.3804 65.9233 17.4101 66.8452 18.3273C67.5952 19.0773 68.417 18.7992 69.2467 18.121L70.2514 19.1288C67.1749 22.5382 66.117 24.7117 67.2858 27.1648L47.1811 46.1351C44.703 43.7257 41.8936 41.7335 37.5389 42.0664C27.128 42.8539 33.953 54.7101 20.617 55.5976C15.8483 55.9117 11.3202 56.9585 8.04516 60.2414C-0.282967 68.5664 2.37953 79.9945 11.067 88.6851C19.753 97.3726 31.1827 100.03 39.5092 91.707C43.8514 87.3679 43.7061 79.4945 45.1577 74.7898C47.0311 68.7101 56.8186 70.7679 56.3702 64.0054C56.3311 63.3679 56.1748 62.9648 55.9311 62.7242C54.7139 61.507 51.3014 64.4085 49.2498 62.3554C48.6061 61.7148 48.0998 60.582 47.8342 58.6992L72.5858 32.4695C75.0389 33.6398 77.2155 32.5789 80.6264 29.5023L81.6311 30.507C80.953 31.3382 80.6764 32.1617 81.4202 32.9117C82.3389 33.8304 83.3733 33.2101 84.392 32.1882C85.4108 31.1726 86.0311 30.1398 85.1092 29.2195C84.3608 28.4726 83.5389 28.7539 82.7092 29.4304L81.7452 28.4679C82.8717 27.4007 84.1155 26.1632 85.5467 24.7304C85.7327 24.5445 85.9014 24.3851 86.0842 24.2038L87.0077 25.132C86.3311 25.9632 86.0514 26.7851 86.803 27.5351C87.7217 28.4538 88.7514 27.8335 89.7702 26.8148C90.7827 25.796 91.4061 24.7632 90.4873 23.846C89.7405 23.0976 88.9186 23.3773 88.0889 24.0523L87.1717 23.1351C88.8561 21.4929 90.3233 20.1257 91.5764 18.9523L92.3842 19.757C91.7045 20.5867 91.428 21.4101 92.178 22.1585C93.0967 23.0742 94.1264 22.457 95.1436 21.4367C96.1655 20.4179 96.7842 19.3851 95.8655 18.4679C95.1155 17.7163 94.2936 17.9976 93.4639 18.6726ZM50.2295 66.4929C50.0889 66.5538 49.9452 66.6117 49.7905 66.6757C47.017 67.8164 43.2108 69.3773 41.8561 73.771C41.3592 75.3757 41.0498 77.1554 40.7233 79.0445C40.0795 82.7664 39.3467 86.9835 37.0686 89.2632C33.8827 92.4492 30.1327 93.7554 25.9139 93.1539C21.7842 92.5679 17.3764 90.1148 13.5061 86.2413C9.63422 82.371 7.1811 77.9664 6.59672 73.8382C5.9936 69.621 7.30453 65.8695 10.4858 62.6835C12.6702 60.4992 15.8655 59.3757 20.8467 59.0445C30.1217 58.4304 32.2327 53.0289 33.6295 49.4554C34.7202 46.6601 35.0889 45.7164 37.803 45.5101C40.6264 45.296 42.5186 46.4445 44.6686 48.507L37.9108 54.8851L44.867 61.8445L44.992 61.7117C45.417 62.9835 46.0123 64.0039 46.8077 64.7992C47.7245 65.7337 48.9305 66.3306 50.2295 66.4929ZM74.5202 22.4163C74.3338 22.6024 74.1127 22.7498 73.8694 22.8504C73.6261 22.9509 73.3654 23.0026 73.1021 23.0024C72.8388 23.0021 72.5782 22.9501 72.335 22.8491C72.0919 22.7482 71.871 22.6003 71.685 22.414C71.499 22.2277 71.3515 22.0066 71.251 21.7633C71.1504 21.5199 71.0988 21.2592 71.099 20.9959C71.0992 20.7327 71.1513 20.472 71.2522 20.2289C71.3532 19.9857 71.501 19.7649 71.6873 19.5788C72.0636 19.2032 72.5737 18.9924 73.1054 18.9928C73.6371 18.9933 74.1469 19.2049 74.5225 19.5812C74.8982 19.9575 75.1089 20.4676 75.1085 20.9993C75.1081 21.531 74.8964 22.0407 74.5202 22.4163ZM77.0873 14.1773C77.8717 13.396 79.1405 13.396 79.9264 14.1773C80.3006 14.5542 80.5103 15.064 80.5097 15.5951C80.5091 16.1262 80.2983 16.6355 79.9233 17.0117C79.1373 17.796 77.8686 17.7929 77.0905 17.0117C76.9035 16.8261 76.755 16.6055 76.6536 16.3624C76.5521 16.1193 76.4998 15.8585 76.4995 15.5951C76.4992 15.3317 76.551 15.0708 76.6519 14.8275C76.7528 14.5842 76.9008 14.3632 77.0873 14.1773ZM80.192 28.0835C79.8099 28.4301 79.3091 28.6165 78.7934 28.604C78.2776 28.5915 77.7865 28.3812 77.4216 28.0165C77.0567 27.6518 76.846 27.1607 76.8332 26.645C76.8205 26.1292 77.0066 25.6283 77.353 25.246C78.1405 24.4648 79.4077 24.4648 80.192 25.2492C80.3786 25.435 80.5267 25.6558 80.6278 25.899C80.7288 26.1422 80.7808 26.403 80.7808 26.6663C80.7808 26.9297 80.7288 27.1905 80.6278 27.4337C80.5267 27.6769 80.3786 27.8977 80.192 28.0835ZM82.4874 8.77885C82.6734 8.59244 82.8944 8.44461 83.1377 8.34385C83.381 8.24308 83.6418 8.19135 83.9052 8.19164C84.1685 8.19193 84.4292 8.24423 84.6723 8.34554C84.9154 8.44684 85.1361 8.59516 85.3217 8.78197C85.6019 9.0626 85.7925 9.42001 85.8695 9.809C85.9465 10.198 85.9064 10.6011 85.7543 10.9673C85.6022 11.3335 85.3449 11.6463 85.015 11.8663C84.685 12.0862 84.2973 12.2034 83.9008 12.203C83.5042 12.2025 83.1167 12.0845 82.7873 11.8638C82.4578 11.6431 82.2012 11.3297 82.0499 10.9632C81.8986 10.5966 81.8594 10.1935 81.9373 9.80466C82.0152 9.41585 82.2066 9.05886 82.4874 8.77885ZM85.5905 22.682C85.2106 23.0392 84.7066 23.2346 84.1852 23.2266C83.6638 23.2186 83.166 23.008 82.7973 22.6392C82.4285 22.2705 82.2179 21.7727 82.2099 21.2513C82.2019 20.7299 82.3973 20.2259 82.7545 19.846C83.5358 19.0679 84.8061 19.0648 85.592 19.846C85.9673 20.2226 86.1778 20.7327 86.1776 21.2643C86.1773 21.796 85.9661 22.3058 85.5905 22.682ZM90.9889 17.282C90.803 17.468 90.5823 17.6155 90.3394 17.7163C90.0964 17.817 89.836 17.8688 89.5731 17.8689C89.3101 17.869 89.0497 17.8172 88.8067 17.7167C88.5637 17.6161 88.3429 17.4687 88.1569 17.2828C87.9709 17.0969 87.8233 16.8761 87.7226 16.6332C87.6219 16.3903 87.57 16.1299 87.57 15.8669C87.5699 15.6039 87.6216 15.3435 87.7222 15.1005C87.8227 14.8575 87.9702 14.6367 88.1561 14.4507C88.9373 13.6632 90.2077 13.6663 90.9905 14.4507C91.7733 15.2351 91.7764 16.4976 90.9889 17.282Z" fill="#ffffff"/>
</g>
<defs>
<clipPath id="clip0_217_64">
<rect width="100" height="100" fill="white"/>
</clipPath>
</defs>
</svg>
