<svg width="100" height="100" viewBox="0 0 100 100" fill="none" xmlns="http://www.w3.org/2000/svg">
<path d="M93.75 0H6.25C2.79531 0 0 2.79531 0 6.25V93.75C0 97.2047 2.79531 100 6.25 100H93.75C97.2047 100 100 97.2047 100 93.75V6.25C100 2.79531 97.2047 0 93.75 0ZM23.4375 96.875H6.25C4.525 96.875 3.125 95.475 3.125 93.75V6.25C3.125 4.525 4.12656 3.125 6.25 3.125H17.1875V64.0625C17.1875 64.9266 17.8859 65.625 18.75 65.625H23.4375V96.875ZM48.4375 96.875H26.5625V65.625H31.25C32.1141 65.625 32.8125 64.9266 32.8125 64.0625V3.125H42.1875V64.0625C42.1875 64.9266 42.8859 65.625 43.75 65.625H48.4375V96.875ZM73.4375 96.875H51.5625V65.625H56.25C57.1141 65.625 57.8125 64.9266 57.8125 64.0625V3.125H67.1875V64.0625C67.1875 64.9266 67.8859 65.625 68.75 65.625H73.4375V96.875ZM96.875 93.75C96.875 95.475 95.475 96.875 93.75 96.875H76.5625V65.625H81.25C82.1141 65.625 82.8125 64.9266 82.8125 64.0625V3.125H93.75C95.3375 3.125 96.875 4.525 96.875 6.25V93.75Z" fill="#ffffff"/>
</svg>
