<svg width="100" height="101" viewBox="0 0 100 101" fill="none" xmlns="http://www.w3.org/2000/svg">
<path d="M90.8203 1.37695C88.9843 -0.458984 86.0156 -0.458984 84.1992 1.37695L74.8046 10.752C74.3359 11.2207 73.9648 11.7871 73.7304 12.4121L70.7226 20.4199L55.5859 35.5762C46.7773 29.834 36.1913 29.6777 29.9999 35.8887C27.8515 38.0371 26.4843 40.6934 25.8202 43.623C25.0976 46.8652 22.0898 49.6191 18.7695 49.7949C13.7695 50.0488 9.14056 51.8848 5.62494 55.3809C-3.12506 64.1504 -1.48444 79.9707 9.27728 90.7324C20.039 101.494 35.8593 103.135 44.6093 94.3848C48.1054 90.8887 49.9609 86.2402 50.1953 81.2402C50.371 77.9199 53.1249 74.9316 56.3671 74.1894C59.2968 73.5254 61.9531 72.1387 64.1015 70.0098C70.3124 63.7988 70.1562 53.2324 64.414 44.4238L79.5703 29.2676L87.5781 26.2598C88.2031 26.0254 88.7695 25.6543 89.2382 25.1855L98.6132 15.8105C100.449 13.9746 100.449 11.0059 98.6132 9.18945L90.8203 1.37695ZM40.6249 50.0098C43.1113 50.0098 45.4959 50.9975 47.2541 52.7556C49.0122 54.5138 49.9999 56.8984 49.9999 59.3848C49.9999 61.8712 49.0122 64.2557 47.2541 66.0139C45.4959 67.772 43.1113 68.7598 40.6249 68.7598C38.1385 68.7598 35.754 67.772 33.9958 66.0139C32.2377 64.2557 31.2499 61.8712 31.2499 59.3848C31.2499 56.8984 32.2377 54.5138 33.9958 52.7556C35.754 50.9975 38.1385 50.0098 40.6249 50.0098Z" fill="#ffffff"/>
</svg>
